<svg xmlns="http://www.w3.org/2000/svg" width="64" height="64" viewBox="0 0 64 64" role="img" aria-label="Blinkit">
  <defs>
    <linearGradient id="g" x1="0" y1="0" x2="1" y2="1">
      <stop offset="0" stop-color="#22c55e"/>
      <stop offset="1" stop-color="#16a34a"/>
    </linearGradient>
  </defs>
  <rect width="64" height="64" rx="16" fill="url(#g)"/>
  <path
    d="M22 18h16.2c6 0 10.3 3.2 10.3 8.3 0 3.3-1.9 5.9-5 7.1 3.9 1.2 6.2 4 6.2 7.8 0 5.8-4.7 9.8-11.7 9.8H22V18zm15.6 16.2c3.1 0 5.1-1.4 5.1-3.7 0-2.2-1.9-3.5-5.1-3.5H28v7.2h9.6zm.8 17.1c3.6 0 5.9-1.6 5.9-4.2 0-2.6-2.3-4.1-5.9-4.1H28v8.3h10.4z"
    fill="#0b1220"
    opacity="0.95"
  />
</svg>
